{"title":"Kung Fu Panda 2 (1920x1080)(5.1) [Phr0stY].mkv","uid":8833512,"size":3290587213,"categoryP":"video","categoryS":"hd___movies","magnet":"?xt=urn:btih:6d98169f4172d308fb3f01df17a4825ee0ac255f&amp;dn=Kung+Fu+Panda+2+%281920x1080%29%285.1%29+%5BPhr0stY%5D.mkv&amp;tr=udp%3A%2F%2Ftracker.openbittorrent.com%3A80&amp;tr=udp%3A%2F%2Fopen.demonii.com%3A1337&amp;tr=udp%3A%2F%2Ftracker.coppersurfer.tk%3A6969&amp;tr=udp%3A%2F%2Fexodus.desync.com%3A6969","seeders":1,"leechers":0,"uploader":"frostyon420","files":-1,"time":1377052887,"description":"please Seed!!!!!\n\n &lt;a href=&quot;\nhttps://forum.suprbay.org/showthread.php?tid=154520&quot; rel=&quot;nofollow&quot; target=&quot;_NEW&quot;&gt;\nhttps://forum.suprbay.org/showthread.php?tid=154520&lt;/a&gt;\n\n\n\nComplete name                            : D:MoviesKung Fu Panda 2 (1920x1080)(5.1) [Phr0stY].mkv\nFormat                                   : Matroska\nFormat version                           : Version 4 / Version 2\nFile size                                : 3.06 GiB\nDuration                                 : 1h 30mn\nOverall bit rate                         : 4 853 Kbps\nMovie name                               : Kung Fu Panda 2 (1920x1080)(5.1) [Phr0stY]\nEncoded date                             : UTC 2013-08-21 00:36:14\nWriting application                      : mkvmerge v6.3.0 ('You can't stop me!') built on Jun 28 2013 20:09:41\nWriting library                          : libebml v1.3.0 + libmatroska v1.4.0\n\nVideo\nID                                       : 1\nFormat                                   : AVC\nFormat/Info                              : Advanced Video Codec\nFormat profile                           : &lt;a class=&quot;__cf_email__&quot; href=&quot;/cdn-cgi/l/email-protection&quot; data-cfemail=&quot;c48cada3ac8488f0eaf4&quot;&gt;[email&amp;#160;protected]&lt;/a&gt;&lt;script cf-hash='f9e31' type=&quot;text/javascript&quot;&gt;\n/* &lt;![CDATA[ */!function(){try{var t=&quot;currentScript&quot;in document?document.currentScript:function(){for(var t=document.getElementsByTagName(&quot;script&quot;),e=t.length;e--;)if(t[e].getAttribute(&quot;cf-hash&quot;))return t[e]}();if(t&amp;&amp;t.previousSibling){var e,r,n,i,c=t.previousSibling,a=c.getAttribute(&quot;data-cfemail&quot;);if(a){for(e=&quot;&quot;,r=parseInt(a.substr(0,2),16),n=2;a.length-n;n+=2)i=parseInt(a.substr(n,2),16)^r,e+=String.fromCharCode(i);e=document.createTextNode(e),c.parentNode.replaceChild(e,c)}}}catch(u){}}();/* ]]&gt; */&lt;/script&gt;\nFormat settings, CABAC                   : Yes\nFormat settings, ReFrames                : 5 frames\nCodec ID                                 : V_MPEG4/ISO/AVC\nDuration                                 : 1h 30mn\nBit rate                                 : 4 373 Kbps\nWidth                                    : 1 916 pixels\nHeight                                   : 812 pixels\nDisplay aspect ratio                     : 2.35:1\nFrame rate mode                          : Constant\nFrame rate                               : 23.976 fps\nColor space                              : YUV\nChroma subsampling                       : 4:2:0\nBit depth                                : 8 bits\nScan type                                : Progressive\nBits/(Pixel*Frame)                       : 0.117\nStream size                              : 2.76 GiB (90%)\nLanguage                                 : English\nDefault                                  : Yes\nForced                                   : No\nColor primaries                          : BT.709\nTransfer characteristics                 : BT.709\nMatrix coefficients                      : BT.709\n\nAudio\nID                                       : 2\nFormat                                   : AC-3\nFormat/Info                              : Audio Coding 3\nMode extension                           : CM (complete main)\nFormat settings, Endianness              : Big\nCodec ID                                 : A_AC3\nDuration                                 : 1h 30mn\nBit rate mode                            : Constant\nBit rate                                 : 384 Kbps\nChannel(s)                               : 6 channels\nChannel positions                        : Front: L C R, Side: L R, LFE\nSampling rate                            : 48.0 KHz\nBit depth                                : 16 bits\nCompression mode                         : Lossy\nStream size                              : 248 MiB (8%)\nLanguage                                 : English\nDefault                                  : Yes\nForced                                   : No\n\n","torrent":{"xt":"urn:btih:6d98169f4172d308fb3f01df17a4825ee0ac255f","amp;dn":"Kung+Fu+Panda+2+%281920x1080%29%285.1%29+%5BPhr0stY%5D.mkv","amp;tr":["udp%3A%2F%2Ftracker.openbittorrent.com%3A80","udp%3A%2F%2Fopen.demonii.com%3A1337","udp%3A%2F%2Ftracker.coppersurfer.tk%3A6969","udp%3A%2F%2Fexodus.desync.com%3A6969"],"infoHash":"6d98169f4172d308fb3f01df17a4825ee0ac255f","infoHashBuffer":{"type":"Buffer","data":[109,152,22,159,65,114,211,8,251,63,1,223,23,164,130,94,224,172,37,95]},"announce":[],"urlList":[]}}